# xmcd
#
# Track frame offsets:
# 150
# 23362
# 42903
# 59536
# 94034
# 95871
# 120802
# 140483
# 165962
# 203541
# 209807
# 215505
# 234863
# 254204
# 276322
# 304868
#
# Disc length: 4347 seconds
#
# Revision: 0
# Processed by: cddbd v1.5.1PL0 Copyright (c) Steve Scherf et al.
# Submitted via: Audion 3.0.2 (http://www.panic.com/audion/)
#
DISCID=e310f910
DTITLE=Shaady - rue des mites
DYEAR=1900
DGENRE=
TTITLE0=Aboud Souf
TTITLE1=Ah...L'amour
TTITLE2=Allant vert
TTITLE3=Azady
TTITLE4=Bennyliude
TTITLE5=Bienvenue
TTITLE6=Calamite
TTITLE7=Communité
TTITLE8=Dubistan
TTITLE9=He Jula
TTITLE10=Intro
TTITLE11=L'abime
TTITLE12=Lacher de leste
TTITLE13=Le passé
TTITLE14=Mezzanine
TTITLE15=Mind
EXTD=
EXTT0=
EXTT1=
EXTT2=
EXTT3=
EXTT4=
EXTT5=
EXTT6=
EXTT7=
EXTT8=
EXTT9=
EXTT10=
EXTT11=
EXTT12=
EXTT13=
EXTT14=
EXTT15=
PLAYORDER=
